<?xml version="1.0" encoding="utf-8"?>
<!-- Generator: Adobe Illustrator 25.0.1, SVG Export Plug-In . SVG Version: 6.00 Build 0)  -->
<svg version="1.0" id="Layer_1" xmlns="http://www.w3.org/2000/svg" xmlns:xlink="http://www.w3.org/1999/xlink" x="0px" y="0px"
	 viewBox="0 0 352 240" style="enable-background:new 0 0 352 240;" xml:space="preserve">
<style type="text/css">
	.st0{fill:#56C2F0;}
</style>
<g>
	<path class="st0" d="M84.1,104.1c-0.4,0-0.5-0.2-0.3-0.5l2.2-2.8c0.2-0.3,0.7-0.5,1.2-0.5h37.6c0.4,0,0.5,0.3,0.3,0.6l-1.8,2.7
		c-0.2,0.3-0.7,0.6-1.1,0.6L84.1,104.1z M68.2,113.7c-0.4,0-0.5-0.2-0.3-0.5l2.2-2.9c0.2-0.3,0.7-0.5,1.2-0.5h48.1
		c0.4,0,0.6,0.3,0.5,0.6L119,113c-0.1,0.4-0.5,0.6-0.9,0.6L68.2,113.7z M93.7,123.4c-0.4,0-0.5-0.3-0.3-0.6l1.5-2.6
		c0.2-0.3,0.6-0.6,1.1-0.6H117c0.4,0,0.6,0.3,0.6,0.7l-0.2,2.5c0,0.4-0.4,0.7-0.7,0.7L93.7,123.4z M203.1,102.2
		c-6.6,1.7-11.2,2.9-17.7,4.6c-1.6,0.4-1.7,0.5-3.1-1.1c-1.6-1.8-2.7-2.9-5-4c-6.6-3.3-13.1-2.3-19.1,1.6
		c-7.2,4.6-10.9,11.5-10.8,20c0.1,8.4,5.9,15.4,14.2,16.6c7.2,0.9,13.2-1.6,17.9-7c0.9-1.2,1.8-2.4,2.9-3.9h-20.4
		c-2.2,0-2.7-1.4-2-3.2c1.4-3.3,3.9-8.8,5.4-11.5c0.3-0.6,1.1-1.7,2.6-1.7h38.4c-0.2,2.9-0.2,5.7-0.6,8.5c-1.2,7.6-4,14.6-8.6,20.7
		c-7.6,10-17.5,16.2-30.1,17.9c-10.3,1.4-19.9-0.6-28.4-7c-7.8-5.9-12.2-13.7-13.4-23.4c-1.4-11.5,2-21.8,9-30.9
		c7.5-9.8,17.4-16,29.5-18.2c9.9-1.8,19.4-0.6,27.9,5.2c5.6,3.7,9.6,8.8,12.2,14.9C204.8,101.3,204.4,101.8,203.1,102.2z"/>
	<path class="st0" d="M238,160.4c-9.6-0.2-18.4-2.9-25.7-9.3c-6.2-5.4-10.1-12.2-11.4-20.4c-1.9-11.9,1.4-22.5,8.5-31.8
		c7.7-10.1,17-15.4,29.5-17.6c10.8-1.9,20.9-0.8,30,5.4c8.3,5.7,13.5,13.4,14.9,23.5c1.8,14.2-2.3,25.8-12.1,35.7
		c-7,7.1-15.5,11.5-25.3,13.5C243.6,160,240.7,160.1,238,160.4L238,160.4z M263.1,117.9c-0.1-1.4-0.1-2.4-0.3-3.5
		c-1.9-10.4-11.5-16.3-21.5-14c-9.8,2.2-16.1,8.4-18.4,18.4c-1.9,8.2,2.1,16.6,9.7,19.9c5.8,2.5,11.6,2.2,17.2-0.6
		C258,133.7,262.6,126.9,263.1,117.9L263.1,117.9z"/>
</g>
</svg>
